# xmcd CD database file generated by MAGIX-FreeDB-MP3_Maker_12 v2.0beta1
# 
# Track frame offsets:
#      182
#      21632
#      43605
#      63972
#      79860
#      102780
#      119140
#      141612
#      163802
#      181372
#      208220
#      224815
#      243462
# 
# Disc length: 3656 seconds
# 
# Revision: 2 
# Processed by: cddbd v1.5.2PL0 Copyright (c) Steve Scherf et al.
# Submitted via: MAGIX-FreeDB-MP3_Maker_12 v2.0beta1
# 
DISCID=d40e460d
DTITLE=Jakie Quartz - Mise au point
DYEAR=1900
DGENRE=
TTITLE0=Jakie Quartz - Mise au point
TTITLE1=Jakie Quartz - A la vie a l`amour
TTITLE2=Jakie Quartz - Marie
TTITLE3=Jakie Quartz - Vivre Ailleurs
TTITLE4=Jakie Quartz - Amour Exil
TTITLE5=Jakie Quartz - Histoire Sans Parole
TTITLE6=Jakie Quartz - Amour Blesse
TTITLE7=Jakie Quartz - Emotion
TTITLE8=Jakie Quartz - Derniere Fois
TTITLE9=Jakie Quartz - Shangai (Lina la Gitane)
TTITLE10=Jakie Quartz - Mal De Vivre
TTITLE11=Jakie Quartz - J`ai Peur
TTITLE12=Jakie Quartz - Sans Amour
EXTD=
EXTT0=
EXTT1=
EXTT2=
EXTT3=
EXTT4=
EXTT5=
EXTT6=
EXTT7=
EXTT8=
EXTT9=
EXTT10=
EXTT11=
EXTT12=
PLAYORDER=
